
<svg version="1.1" xmlns="http://www.w3.org/2000/svg" width="300" height="154">
<path d="M0 0 C2.40444946 -0.36076355 2.40444946 -0.36076355 5.45947266 -0.34057617 C6.60050446 -0.34034958 7.74153625 -0.34012299 8.91714478 -0.33988953 C10.77186905 -0.31666374 10.77186905 -0.31666374 12.6640625 -0.29296875 C13.92640717 -0.28872391 15.18875183 -0.28447906 16.48934937 -0.28010559 C19.84661351 -0.26613137 23.20326932 -0.23917302 26.56036377 -0.20599365 C29.98550148 -0.17531352 33.41070201 -0.1616047 36.8359375 -0.14648438 C43.5574605 -0.11334641 50.27869511 -0.06309539 57 0 C58.08896084 4.07930587 57.83028091 7.01250979 56.95683289 11.12380981 C56.70025909 12.35481415 56.4436853 13.58581848 56.17933655 14.85412598 C55.88627086 16.2102468 55.5930055 17.56632448 55.29956055 18.92236328 C54.99671012 20.35646396 54.6947092 21.79074425 54.39349365 23.22518921 C53.57390667 27.11537193 52.74197763 31.00282006 51.90745521 34.88982248 C51.0359119 38.95767154 50.17452717 43.02767206 49.3117218 47.09738159 C47.86154931 53.9298371 46.4035302 60.76058167 44.94067383 67.59033203 C43.24892202 75.48913242 41.56876698 83.39033005 39.89498109 91.29295552 C38.28490993 98.89377965 36.66745163 106.49301238 35.04633522 114.09148788 C34.35630671 117.32618851 33.66873671 120.56139734 32.98309898 123.7970314 C32.1757373 127.60517065 31.36188017 131.41186469 30.54295349 135.21753311 C30.24320462 136.61549287 29.94567369 138.01393028 29.65050697 139.41286469 C29.2477395 141.3199122 28.8361631 143.22509298 28.42411804 145.13015747 C28.19605815 146.1975522 27.96799826 147.26494694 27.73302746 148.36468697 C27 151 27 151 25 154 C22.60227966 154.36749268 22.60227966 154.36749268 19.55639648 154.35644531 C17.84969032 154.36094696 17.84969032 154.36094696 16.10850525 154.36553955 C14.87515945 154.35319275 13.64181366 154.34084595 12.37109375 154.328125 C11.11112076 154.32625183 9.85114777 154.32437866 8.55299377 154.32244873 C5.88536657 154.31571566 3.21849662 154.30341213 0.55102539 154.28125 C-2.87464745 154.25293865 -6.30008284 154.24203594 -9.72586155 154.2375679 C-12.9852394 154.23242155 -16.24455966 154.21788137 -19.50390625 154.203125 C-20.73927628 154.19887512 -21.9746463 154.19462524 -23.24745178 154.19024658 C-24.9494297 154.17583527 -24.9494297 154.17583527 -26.68579102 154.16113281 C-28.1923098 154.15089081 -28.1923098 154.15089081 -29.72926331 154.14044189 C-32 154 -32 154 -33 153 C-32.90368907 144.9216368 -30.85933856 136.91382788 -29.16430664 129.06079102 C-28.87139449 127.68498583 -28.57894228 126.30908265 -28.28691101 124.93309021 C-27.49859147 121.22588029 -26.70342773 117.52017091 -25.90659642 113.81478238 C-25.24085954 110.71584811 -24.57856424 107.61618249 -23.91626352 104.51651233 C-22.35475583 97.20860162 -20.78772273 89.9018913 -19.21704102 82.59594727 C-17.59713317 75.06062268 -15.98596054 67.52346832 -14.3791247 59.98534638 C-12.99697618 53.50260645 -11.60980287 47.02095628 -10.21849531 40.54017586 C-9.38846188 36.67369562 -8.56026904 32.80684504 -7.73677254 28.93896675 C-6.96365154 25.30890781 -6.18425618 21.6802528 -5.39996529 18.05259132 C-4.97617135 16.08490799 -4.55878436 14.11584818 -4.14157104 12.14675903 C-3.88784225 10.97910507 -3.63411346 9.81145111 -3.37269592 8.6084137 C-3.15460801 7.59175912 -2.9365201 6.57510454 -2.71182346 5.52764225 C-2 3 -2 3 0 0 Z " fill="#000000" transform="translate(152,0)"/>
<path d="M0 0 C1.16823807 -0.01929062 2.33647614 -0.03858124 3.54011536 -0.05845642 C8.89245223 -0.11590142 14.24462105 -0.16579093 19.59716797 -0.19628906 C22.42510381 -0.21409886 25.2520417 -0.24890522 28.07958984 -0.29882812 C32.1439621 -0.37051098 36.20725181 -0.39324569 40.2722168 -0.41235352 C42.17237297 -0.4540995 42.17237297 -0.4540995 44.11091614 -0.49668884 C52.8330817 -0.47614048 52.8330817 -0.47614048 56.14770508 2.76293945 C56.60516113 3.90005371 57.06261719 5.03716797 57.53393555 6.20874023 C58.10403743 7.42215576 58.67512569 8.63510821 59.24707031 9.84765625 C59.82949284 11.21664302 60.40521791 12.58849237 60.9753418 13.96264648 C61.45526581 15.09793037 61.45526581 15.09793037 61.94488525 16.25614929 C63.00121424 18.75877539 64.04876961 21.26497668 65.09643555 23.77124023 C65.84347697 25.54525542 66.59112953 27.31901337 67.33935547 29.0925293 C68.92378273 32.85075742 70.50466966 36.61044609 72.08276367 40.37133789 C75.34722088 48.14960644 78.62948349 55.9203418 81.91162109 63.69116211 C83.52792884 67.51808744 85.14117173 71.34628257 86.75195312 75.17553711 C90.26371276 83.5175464 93.79307487 91.84894921 97.4362793 100.13452148 C98.01535332 101.45774011 98.59437565 102.78098136 99.17333984 104.10424805 C100.21039715 106.47305026 101.26165811 108.83358726 102.32226562 111.19213867 C102.76852295 112.20953125 103.21478027 113.22692383 103.67456055 114.27514648 C104.06160156 115.14083252 104.44864258 116.00651855 104.84741211 116.8984375 C105.61478387 119.48081266 105.4962475 120.72161385 104.53393555 123.20874023 C102.79902893 124.94364685 100.4322893 124.38117036 98.06787109 124.41748047 C96.89963303 124.43677109 95.73139496 124.45606171 94.52775574 124.47593689 C89.17541886 124.53338189 83.82325004 124.5832714 78.47070312 124.61376953 C75.64276728 124.63157933 72.81582939 124.66638569 69.98828125 124.71630859 C65.923909 124.78799145 61.86061929 124.81072616 57.7956543 124.82983398 C55.89549812 124.87157997 55.89549812 124.87157997 53.95695496 124.91416931 C45.21652499 124.89357792 45.21652499 124.89357792 41.86547852 121.53149414 C41.42606934 120.43498535 40.98666016 119.33847656 40.53393555 118.20874023 C40.08977295 117.28053467 39.64561035 116.3523291 39.18798828 115.39599609 C38.78523682 114.4151001 38.38248535 113.4342041 37.9675293 112.42358398 C37.49202637 111.27664062 37.01652344 110.12969727 36.52661133 108.94799805 C36.14910736 108.02500916 36.14910736 108.02500916 35.76397705 107.08337402 C34.6540244 104.37042237 33.52911972 101.66373654 32.40557861 98.95639038 C31.78647694 97.4640393 31.16813116 95.97137445 30.55047607 94.47842407 C26.86840122 85.58217853 23.1237126 76.71245049 19.37689209 67.84332275 C18.15883883 64.95851116 16.94314639 62.07271337 15.7277832 59.18676758 C11.8640011 50.02155314 7.96801125 40.87280884 3.9831543 31.75952148 C3.27585009 30.13554604 2.56865321 28.51152384 1.86157227 26.88745117 C0.55356401 23.88394633 -0.76826917 20.88707712 -2.09838867 17.89331055 C-2.68371941 16.55207148 -3.26854844 15.21061331 -3.8527832 13.86889648 C-4.360271 12.72042236 -4.86775879 11.57194824 -5.390625 10.38867188 C-6.50342172 7.09827975 -6.76020999 4.6554899 -6.46606445 1.20874023 C-4.73115784 -0.52616638 -2.36441821 0.03631011 0 0 Z " fill="#000000" transform="translate(6.466064453125,29.791259765625)"/>
<path d="M0 0 C1.51223648 0.00666183 1.51223648 0.00666183 3.05502319 0.01345825 C4.19605499 0.01360931 5.33708679 0.01376038 6.51269531 0.01391602 C8.36741959 0.02939987 8.36741959 0.02939987 10.25961304 0.04519653 C12.15313004 0.04944138 12.15313004 0.04944138 14.0848999 0.05377197 C17.44201998 0.06308772 20.79886965 0.08106068 24.15591431 0.10317993 C27.58108176 0.12363353 31.00627713 0.13277264 34.43148804 0.14285278 C41.15291724 0.16494445 47.87421827 0.19844527 54.59555054 0.24050903 C55.76232667 4.49528224 55.35426022 7.61747203 54.45565796 11.91091919 C54.2558709 12.88501991 54.2558709 12.88501991 54.05204773 13.87879944 C53.61133136 16.01452176 53.15655801 18.14696574 52.70101929 20.27957153 C52.38983149 21.76725579 52.07931996 23.25508165 51.76945496 24.74304199 C51.118936 27.85616224 50.46170057 30.96776342 49.79940796 34.07839966 C48.95089923 38.06530087 48.11696842 42.05507846 47.28774548 46.04603004 C46.64849554 49.11655281 46.00269821 52.18566874 45.35479164 55.25437546 C45.04484778 56.72521447 44.73667926 58.19642876 44.43031883 59.66801834 C44.00122826 61.72307801 43.56363457 63.77614205 43.12362671 65.82888794 C42.87634323 66.99739288 42.62905975 68.16589783 42.37428284 69.36981201 C41.59555054 72.24050903 41.59555054 72.24050903 39.59555054 75.24050903 C37.24252319 75.61473083 37.24252319 75.61473083 34.25961304 75.61282349 C33.14505737 75.61905228 32.03050171 75.62528107 30.88217163 75.63169861 C29.67383667 75.62248886 28.46550171 75.61327911 27.22055054 75.60379028 C25.98514526 75.60428879 24.74973999 75.60478729 23.47689819 75.6053009 C20.18953529 75.60235538 16.90260187 75.58530193 13.61532593 75.56307983 C11.59758934 75.5530192 9.58010342 75.55269638 7.56234741 75.55618286 C3.69829949 75.56257872 -0.16542421 75.55469304 -4.02944946 75.54129028 C-5.23778442 75.54220169 -6.44611938 75.5431131 -7.69107056 75.54405212 C-8.80562622 75.53452011 -9.92018188 75.5249881 -11.06851196 75.51516724 C-12.05287231 75.51055984 -13.03723267 75.50595245 -14.05142212 75.50120544 C-16.40444946 75.24050903 -16.40444946 75.24050903 -18.40444946 73.24050903 C-18.25894165 70.68965149 -18.25894165 70.68965149 -17.70132446 67.48342896 C-17.49958618 66.3092038 -17.2978479 65.13497864 -17.08999634 63.9251709 C-15.99806547 58.05628552 -14.85728564 52.20098996 -13.65444946 46.35379028 C-13.39567017 45.08955734 -13.13689087 43.8253244 -12.87026978 42.52278137 C-12.32804244 39.87782273 -11.78308681 37.23344297 -11.23648071 34.58938599 C-10.53641736 31.20043358 -9.84652049 27.80949316 -9.15890503 24.41799641 C-8.49748315 21.1660347 -7.82529163 17.91632166 -7.15444946 14.66629028 C-6.90856079 13.44871536 -6.66267212 12.23114044 -6.40933228 10.97666931 C-6.1756897 9.85757675 -5.94204712 8.73848419 -5.70132446 7.58547974 C-5.49861938 6.59876785 -5.29591431 5.61205597 -5.08706665 4.59544373 C-4.16248873 1.40577804 -3.36194485 0.33628409 0 0 Z " fill="#000000" transform="translate(214.40444946289063,78.75949096679688)"/>
<path d="M0 0 C1.13787964 -0.00315216 2.27575928 -0.00630432 3.44812012 -0.009552 C4.6866272 -0.00752777 5.92513428 -0.00550354 7.20117188 -0.00341797 C8.46255981 -0.00437469 9.72394775 -0.00533142 11.02355957 -0.00631714 C13.69689325 -0.00699922 16.37013624 -0.00564076 19.04345703 -0.00097656 C22.47698878 0.00472073 25.91044237 0.00144152 29.34397125 -0.00454903 C32.6088743 -0.00902309 35.87376781 -0.0058943 39.13867188 -0.00341797 C40.37717896 -0.0054422 41.61568604 -0.00746643 42.89172363 -0.009552 C44.02960327 -0.00639984 45.16748291 -0.00324768 46.33984375 0 C47.34720581 0.00079559 48.35456787 0.00159119 49.39245605 0.00241089 C51.66992188 0.12939453 51.66992188 0.12939453 52.66992188 1.12939453 C53.1505597 7.50876931 51.6991304 13.32239992 50.23242188 19.50439453 C50.00232422 20.51373047 49.77222656 21.52306641 49.53515625 22.56298828 C47.81131375 29.98800266 47.81131375 29.98800266 46.66992188 31.12939453 C44.89546178 31.22833231 43.11705936 31.25738546 41.33984375 31.25878906 C40.20196411 31.26194122 39.06408447 31.26509338 37.89172363 31.26834106 C36.65321655 31.26631683 35.41470947 31.2642926 34.13867188 31.26220703 C32.87728394 31.26316376 31.615896 31.26412048 30.31628418 31.2651062 C27.6429505 31.26578828 24.96970751 31.26442982 22.29638672 31.25976562 C18.86285497 31.25406834 15.42940138 31.25734754 11.9958725 31.26333809 C8.73096945 31.26781215 5.46607594 31.26468337 2.20117188 31.26220703 C0.96266479 31.26423126 -0.27584229 31.26625549 -1.55187988 31.26834106 C-2.68975952 31.2651889 -3.82763916 31.26203674 -5 31.25878906 C-6.00736206 31.25799347 -7.01472412 31.25719788 -8.0526123 31.25637817 C-10.33007812 31.12939453 -10.33007812 31.12939453 -11.33007812 30.12939453 C-10.99969689 23.30151557 -9.7233029 16.74315287 -8.33007812 10.06689453 C-8.1519458 9.20918457 -7.97381348 8.35147461 -7.7902832 7.46777344 C-7.61779053 6.66388184 -7.44529785 5.85999023 -7.26757812 5.03173828 C-7.11160156 4.30462646 -6.955625 3.57751465 -6.79492188 2.82836914 C-5.79002576 -0.84446282 -3.41206561 0.00269478 0 0 Z " fill="#000000" transform="translate(247.330078125,20.87060546875)"/>
</svg>
